<?xml version="1.0" standalone="no"?>
<!DOCTYPE svg PUBLIC "-//W3C//DTD SVG 20010904//EN"
 "http://www.w3.org/TR/2001/REC-SVG-20010904/DTD/svg10.dtd">
<svg version="1.0" xmlns="http://www.w3.org/2000/svg"
 width="153.000000pt" height="153.000000pt" viewBox="0 0 153.000000 153.000000"
 preserveAspectRatio="xMidYMid meet">

<g transform="translate(0.000000,153.000000) scale(0.100000,-0.100000)"
fill="#000000" stroke="none">
<path d="M602 1400 c-179 -47 -341 -178 -421 -341 -95 -192 -95 -396 0 -588
59 -120 171 -232 289 -290 194 -95 396 -95 590 0 168 82 307 261 345 444 31
149 12 295 -56 434 -55 111 -170 230 -276 284 -146 76 -319 97 -471 57z m228
-526 c79 -47 80 -178 0 -219 -35 -18 -97 -19 -128 -1 -79 43 -82 178 -4 220
36 20 97 20 132 0z m-256 -199 c65 -159 299 -164 376 -8 l25 52 168 0 167 1 0
-32 c-1 -45 -42 -159 -79 -217 -39 -60 -131 -149 -192 -184 -310 -181 -709
-18 -813 332 -9 30 -16 65 -16 78 l0 23 173 0 172 0 19 -45z"/>
</g>
</svg>
